<?xml version="1.0" encoding="UTF-8" standalone="no"?>
<svg
   xmlns:dc="http://purl.org/dc/elements/1.1/"
   xmlns:cc="http://creativecommons.org/ns#"
   xmlns:rdf="http://www.w3.org/1999/02/22-rdf-syntax-ns#"
   xmlns:svg="http://www.w3.org/2000/svg"
   xmlns="http://www.w3.org/2000/svg"
   viewBox="0 0 512 512"
   height="512"
   width="512"
   version="1.1"
   id="svg4190">
  <metadata
     id="metadata4196">
    <rdf:RDF>
      <cc:Work
         rdf:about="">
        <dc:format>image/svg+xml</dc:format>
        <dc:type
           rdf:resource="http://purl.org/dc/dcmitype/StillImage" />
        <dc:title></dc:title>
      </cc:Work>
    </rdf:RDF>
  </metadata>
  <defs
     id="defs4194" />
  <g
     transform="matrix(1.0018376,0,0,1.002045,-0.96631483,0.03931638)"
     id="g4218">
    <path
       id="path4232"
       d="M 64.5,509.35695 C 37.890983,503.73103 14.686783,483.2696 5.9117334,457.69391 4.3654957,453.18726 2.6312033,446.575 2.0577503,443 1.3646552,438.67913 1.0125758,380.67948 1.0075542,269.99639 L 1,103.49279 52.753572,51.746394 104.50714,0 271.50357,0.00755416 c 110.65378,0.00500547 169.15598,0.35795471 173.39722,1.04612164 33.38646,5.4171578 60.62838,32.6590702 66.04553,66.0455332 1.43879,8.867404 1.43879,367.934181 0,376.801581 -5.41715,33.38646 -32.65907,60.62838 -66.04553,66.04553 -4.27133,0.69305 -67.44886,1.01396 -189.90079,0.9646 C 97.009205,510.84723 70.526897,510.63121 64.5,509.35695 Z M 349.58078,434.55887 C 350.731,432.98567 351,426.98668 351,402.90901 L 351,373.20028 336.88126,360.10014 322.76253,347 l -79.91151,0 -79.9115,0 0.28024,44.03702 c 0.24082,37.84293 0.49122,44.17157 1.78024,44.99363 0.93365,0.59542 35.79453,0.86462 92.33078,0.71298 88.61107,-0.23768 90.86547,-0.29107 92.25,-2.18476 z M 184,409 l 0,-3 73,0 73,0 0,3 0,3 -73,0 -73,0 0,-3 z m 0,-26.5 0,-2.5 73,0 73,0 0,2.5 0,2.5 -73,0 -73,0 0,-2.5 z"
       style="fill:#b0b0b0" />
    <path
       id="path4230"
       d="M 70.5,510.29443 C 44.565936,506.63032 21.524493,490.00539 10.173002,466.76711 0.71390101,447.40285 1.5785989,466.13676 1.2524051,273.5 L 0.96454238,103.5 52.755464,51.730382 104.54638,-0.03923613 275.02319,0.23903651 445.5,0.51730914 452.82929,2.7841339 C 481.7804,11.738225 501.38953,31.82666 509.65845,61.002358 511.41761,67.209303 511.5,75.910901 511.5,255.5 c 0,179.5891 -0.0824,188.2907 -1.84155,194.49764 -4.24169,14.96621 -10.1397,25.50997 -20.0371,35.81993 -10.4818,10.91874 -21.63346,17.70817 -36.79206,22.40001 l -7.32929,2.26854 -186,0.11608 c -102.3,0.0639 -187.35,-0.0746 -189,-0.30777 z m 278.67126,-74.94942 c 1.71807,-1.55483 1.82874,-4.27805 1.82874,-45 L 351,347 l -94,0 -94,0 0,43.8 c 0,32.73333 0.3032,44.1032 1.2,45 0.91575,0.91575 22.74917,1.2 92.17126,1.2 83.24639,0 91.12655,-0.14053 92.8,-1.65499 z M 348.08241,238.23422 351,234.96845 351,177.48422 351,120 l -69.5,0 -69.5,0 0,57.45295 c 0,40.09424 0.33661,58.19171 1.11408,59.89809 0.61275,1.34483 2.07525,2.91581 3.25,3.49107 1.43111,0.70079 23.03431,0.98191 65.46833,0.85191 l 63.33242,-0.19402 2.91758,-3.26578 z M 301.92308,220.07692 299,217.15385 299,179.5 l 0,-37.65385 2.92308,-2.92307 2.92307,-2.92308 15.65385,0 15.65385,0 2.92307,2.92308 2.92308,2.92307 0,37.65385 0,37.65385 -2.92308,2.92307 L 336.15385,223 320.5,223 l -15.65385,0 -2.92307,-2.92308 z"
       style="fill:#e9bc12" />
    <path
       id="path4228"
       d="M 70.5,510.29443 C 44.565936,506.63032 21.524493,490.00539 10.173002,466.76711 0.71390101,447.40285 1.5785989,466.13676 1.2524051,273.5 L 0.96454238,103.5 52.755464,51.730382 104.54638,-0.03923613 275.02319,0.23903651 445.5,0.51730914 452.82929,2.7841339 C 481.7804,11.738225 501.38953,31.82666 509.65845,61.002358 511.41761,67.209303 511.5,75.910901 511.5,255.5 c 0,179.5891 -0.0824,188.2907 -1.84155,194.49764 -4.24169,14.96621 -10.1397,25.50997 -20.0371,35.81993 -10.4818,10.91874 -21.63346,17.70817 -36.79206,22.40001 l -7.32929,2.26854 -186,0.11608 c -102.3,0.0639 -187.35,-0.0746 -189,-0.30777 z M 349.17126,435.34501 C 350.90679,433.77438 351,430.41319 351,369.40172 l 0,-64.28831 -2.22251,-1.55671 C 346.80559,302.17553 336.32309,302 255.81268,302 c -88.69081,0 -90.76572,0.0437 -91.7775,1.93426 -1.57948,2.95129 -1.42033,130.28059 0.16482,131.86574 0.91575,0.91575 22.74917,1.2 92.17126,1.2 83.24639,0 91.12655,-0.14053 92.8,-1.65499 z M 348.08241,238.23422 351,234.96845 351,177.48422 351,120 l -69.5,0 -69.5,0 0,57.45295 c 0,40.09424 0.33661,58.19171 1.11408,59.89809 0.61275,1.34483 2.07525,2.91581 3.25,3.49107 1.43111,0.70079 23.03431,0.98191 65.46833,0.85191 l 63.33242,-0.19402 2.91758,-3.26578 z M 301.92308,220.07692 299,217.15385 299,179.5 l 0,-37.65385 2.92308,-2.92307 2.92307,-2.92308 15.65385,0 15.65385,0 2.92307,2.92308 2.92308,2.92307 0,37.65385 0,37.65385 -2.92308,2.92307 L 336.15385,223 320.5,223 l -15.65385,0 -2.92307,-2.92308 z"
       style="fill:#ef665a" />
    <path
       id="path4226"
       d="M 72.273154,509.96865 C 43.662692,506.96073 18.968626,488.24647 7.6574393,461 1.7781151,446.83784 2.0362729,455.47731 2.0173636,272.25 L 2,104 38.75,103.9892 C 78.171813,103.9776 80.764598,103.70379 88.643173,98.720493 94.676258,94.904474 100.53109,87.869212 102.86499,81.631298 104.9073,76.172738 105,74.276679 105,37.962487 L 105,0 266.89405,0 c 106.96488,0 165.40772,0.36000101 172.25,1.0610398 34.49022,3.533764 61.1332,26.3639972 70.13012,60.0941372 L 511.5,69.5 l 0,186 0,186 -2.22583,8.34482 c -8.99692,33.73014 -35.6399,56.56038 -70.13012,60.09414 -12.0391,1.23349 -355.156611,1.26126 -366.870896,0.0297 z M 349.17126,435.34501 C 350.90679,433.77438 351,430.41319 351,369.40172 l 0,-64.28831 -2.22251,-1.55671 C 346.80559,302.17553 336.32309,302 255.81268,302 c -88.69081,0 -90.76572,0.0437 -91.7775,1.93426 -1.57948,2.95129 -1.42033,130.28059 0.16482,131.86574 0.91575,0.91575 22.74917,1.2 92.17126,1.2 83.24639,0 91.12655,-0.14053 92.8,-1.65499 z M 348.08241,238.23422 351,234.96845 351,177.48422 351,120 l -69.5,0 -69.5,0 0,57.45295 c 0,40.09424 0.33661,58.19171 1.11408,59.89809 0.61275,1.34483 2.07525,2.91581 3.25,3.49107 1.43111,0.70079 23.03431,0.98191 65.46833,0.85191 l 63.33242,-0.19402 2.91758,-3.26578 z M 301.92308,220.07692 299,217.15385 299,179.5 l 0,-37.65385 2.92308,-2.92307 2.92307,-2.92308 15.65385,0 15.65385,0 2.92307,2.92308 2.92308,2.92307 0,37.65385 0,37.65385 -2.92308,2.92307 L 336.15385,223 320.5,223 l -15.65385,0 -2.92307,-2.92308 z"
       style="fill:#e04b3e" />
    <path
       id="path4224"
       d="m 101.5,444.59509 c -3.867661,-1.72768 -7.009083,-5.17591 -8.952272,-9.82662 -1.373835,-3.28805 -1.547101,-20.64513 -1.542151,-154.48635 0.0037,-98.84878 0.354908,-152.03981 1.019818,-154.43366 1.259931,-4.53609 7.687866,-10.52458 12.164945,-11.33328 1.82031,-0.32881 13.84608,-0.46673 26.72392,-0.30651 l 23.41426,0.29133 1.67162,5 1.67162,5 27.16412,0.26607 27.16412,0.26607 0,54.93688 c 0,38.70014 0.33389,55.66969 1.12972,57.41634 0.62135,1.3637 2.31376,2.96991 3.76092,3.56934 1.82803,0.7572 21.80764,1.00677 65.45271,0.81759 l 62.8215,-0.27229 2.91757,-3.26578 2.91758,-3.26577 0,-54.98423 C 351,127.79766 351.09116,125 352.79168,125 c 1.17811,0 2.71545,-1.88352 4.48914,-5.5 l 2.69745,-5.5 8.76902,0 8.76902,0 22.74184,22.75798 22.74185,22.75798 0,135.9263 c 0,134.6654 -0.0189,135.96529 -2.03517,140.13039 -1.15746,2.391 -3.81593,5.43821 -6.16433,7.06572 L 410.67134,445.5 257.58567,445.71759 C 131.43096,445.8969 103.97224,445.69943 101.5,444.59509 Z m 247.67126,-9.25008 C 350.90679,433.77438 351,430.41319 351,369.40172 l 0,-64.28831 -2.22251,-1.55671 C 346.80559,302.17553 336.32309,302 255.81268,302 c -88.69081,0 -90.76572,0.0437 -91.7775,1.93426 -1.57948,2.95129 -1.42033,130.28059 0.16482,131.86574 0.91575,0.91575 22.74917,1.2 92.17126,1.2 83.24639,0 91.12655,-0.14053 92.8,-1.65499 z M 301.92308,220.07692 299,217.15385 299,179.5 l 0,-37.65385 2.92308,-2.92307 2.92307,-2.92308 15.65385,0 15.65385,0 2.92307,2.92308 2.92308,2.92307 0,37.65385 0,37.65385 -2.92308,2.92307 L 336.15385,223 320.5,223 l -15.65385,0 -2.92307,-2.92308 z"
       style="fill:#415165" />
    <path
       id="path4222"
       d="m 105.1228,445.00754 c -3.97493,-0.9498 -7.694669,-3.55355 -10.561011,-7.39254 -2.058359,-2.75682 -2.062221,-3.01269 -2.321391,-153.78951 l -0.259602,-151.0281 4.834221,4.35131 c 2.658822,2.39321 16.613143,15.29221 31.009603,28.66443 L 154,190.12625 l 0.0956,-37.31312 c 0.0908,-35.41416 0.17602,-37.07139 1.67557,-32.56313 l 1.57996,4.75 27.32443,0 27.32443,0 0,55.86514 c 0,55.00306 0.032,55.9058 2.07258,58.5 l 2.07258,2.63486 64.32166,0 64.32167,0 3.10575,-2.90121 3.10576,-2.90121 0,-55.59879 c 0,-52.28301 0.10437,-55.59903 1.75,-55.60286 1.03627,-0.002 2.85988,-1.93967 4.47133,-4.75 l 2.72132,-4.74593 0.0287,64.67308 0.0287,64.67307 -3.06996,3.06996 -3.06995,3.06996 -67.54223,0.25696 -67.54222,0.25697 22.36218,20.7333 22.36218,20.73329 44.31574,0.0167 c 46.13647,0.0174 46.93112,0.0865 50.41202,4.38374 1.57423,1.94342 1.72974,5.82494 1.75,43.68001 L 360,382.5941 l 3.75,3.48569 c 8.21709,7.63791 7.53645,7.43376 11.51615,3.45406 L 378.8,386 l 12.2,0 12.2,0 3.4,3.4 3.4,3.4 0,12.08422 c 0,11.99277 -0.0224,12.10894 -2.96372,15.35 l -2.96372,3.26578 7.64367,7.05432 c 4.7586,4.39169 7.36752,7.50115 6.91204,8.23814 -0.4024,0.65109 -2.84588,2.42665 -5.42995,3.94568 L 408.5,445.5 l -150,0.15726 c -82.5,0.0865 -151.51974,-0.20588 -153.3772,-0.64972 z m 243.94294,-9.04272 C 350.94783,434.95755 351,433.1649 351,369.5 351,305.8351 350.9478,304.04245 349.06574,303.03518 346.10191,301.44899 165.79026,301.60974 164.2,303.2 c -0.90861,0.90861 -1.2,16.91516 -1.2,65.91821 0,35.59502 0.27314,65.43002 0.60699,66.3 0.54737,1.42643 9.58981,1.58179 92.06574,1.58179 61.13249,0 92.10012,-0.34325 93.39301,-1.03518 z M 303.85606,221.4836 c -1.45416,-0.78998 -3.14166,-2.86412 -3.75,-4.60919 -1.52256,-4.36762 -1.52048,-70.38716 0.002,-74.75557 1.79865,-5.15962 4.98017,-6.11884 20.29487,-6.11884 8.33881,0 14.50535,0.45688 16.12465,1.19469 5.30769,2.41834 5.47206,3.6891 5.47206,42.30531 0,38.61621 -0.16437,39.88697 -5.47206,42.30531 -3.91143,1.78217 -29.25856,1.53258 -32.67188,-0.32171 z"
       style="fill:#394d63" />
    <path
       id="path4220"
       d="m 154,373.96788 c 0,-78.4387 -0.0398,-77.86165 5.51673,-79.97424 1.66411,-0.6327 36.82665,-0.99308 96.79837,-0.99209 87.67029,10e-4 94.42603,0.12249 97.67099,1.75 1.91735,0.96165 4.04821,2.87345 4.73526,4.24845 0.96387,1.92903 1.25253,19.00094 1.26391,74.75 L 360,446 l -103,0 -103,0 0,-72.03212 z m 196.12756,61.37843 c 1.13194,-1.36392 1.37244,-12.94346 1.37244,-66.08062 0,-62.62146 -0.0544,-64.46669 -1.94113,-65.8463 C 347.91605,302.21813 333.61644,302 256.50887,302 c -69.52912,0 -91.3931,0.28423 -92.30887,1.2 -0.90896,0.90896 -1.2,17.11852 -1.2,66.83333 0,36.09834 0.3,65.93334 0.66667,66.3 C 164.03333,436.7 205.82823,437 256.54422,437 c 84.55422,0 92.32485,-0.13731 93.58334,-1.65369 z M 110.21257,422.49339 C 105.5689,420.47581 104,416.05808 104,405 c 0,-16.20078 2.83275,-19.00119 19.21788,-18.99845 10.39213,0.002 15.35733,1.70332 17.50347,5.99845 0.76085,1.52271 1.24917,6.60461 1.24917,13 0,12.016 -0.93712,14.71697 -5.98443,17.24845 -4.45806,2.23593 -20.83287,2.39156 -25.77352,0.24494 z m 268,0 C 373.56024,420.47205 372,416.06194 372,404.93325 c 0,-10.27497 1.51266,-14.79929 5.69663,-17.03849 3.54716,-1.89838 23.01204,-1.92382 26.54191,-0.0347 4.2831,2.29224 5.26146,5.4794 5.26146,17.13993 0,12.14108 -1.01335,15.06665 -6.04589,17.45475 -4.27397,2.02813 -20.60499,2.05313 -25.24154,0.0386 z M 159.20557,249.9524 c -5.15547,-2.06904 -5.21315,-2.87242 -5.10996,-71.17028 0.0893,-59.08622 0.20037,-62.96717 1.67557,-58.53212 l 1.57996,4.75 27.32443,0 27.32443,0 0,55.86514 c 0,55.00306 0.032,55.9058 2.07258,58.5 l 2.07258,2.63486 64.41164,0 64.41165,0 3.26577,-2.91731 3.26578,-2.9173 0.28987,-55.5827 c 0.22248,-42.66029 0.57121,-55.58364 1.5,-55.58676 0.66557,-0.002 2.43473,-2.13974 3.93146,-4.75 l 2.72132,-4.74593 0.0139,63.5 c 0.0107,48.79979 -0.27526,64.07875 -1.23524,66 -0.68705,1.375 -2.81791,3.2868 -4.73526,4.24845 -3.24797,1.62902 -9.94088,1.74422 -97.98609,1.68661 -55.09493,-0.036 -95.45674,-0.4458 -96.79443,-0.98266 z M 303.85606,221.4836 C 299.33145,219.02558 299,216.14765 299,179.31866 c 0,-38.41528 0.25054,-40.16454 6.04165,-42.18334 4.18243,-1.458 26.67797,-1.47763 30.83951,-0.0269 C 341.86058,139.19285 342,140.15878 342,179.5 c 0,39.34122 -0.13942,40.30715 -6.11884,42.39158 -4.7994,1.67308 -28.75615,1.36789 -32.0251,-0.40798 z"
       style="fill:#2c3c4e" />
  </g>
</svg>
